<?xml version="1.0" encoding="UTF-8" standalone="no"?>
<!-- Created with Inkscape (http://www.inkscape.org/) -->

<svg
   width="54"
   height="54"
   viewBox="0 0 14.2875 14.2875"
   version="1.1"
   id="svg1"
   inkscape:version="1.3.2 (091e20e, 2023-11-25, custom)"
   sodipodi:docname="betterPointsCoupon.svg"
   inkscape:export-filename="..\pointsCoupon.png"
   inkscape:export-xdpi="96"
   inkscape:export-ydpi="96"
   xmlns:inkscape="http://www.inkscape.org/namespaces/inkscape"
   xmlns:sodipodi="http://sodipodi.sourceforge.net/DTD/sodipodi-0.dtd"
   xmlns="http://www.w3.org/2000/svg"
   xmlns:svg="http://www.w3.org/2000/svg">
  <sodipodi:namedview
     id="namedview1"
     pagecolor="#ffffff"
     bordercolor="#000000"
     borderopacity="0.25"
     inkscape:showpageshadow="2"
     inkscape:pageopacity="0.0"
     inkscape:pagecheckerboard="0"
     inkscape:deskcolor="#d1d1d1"
     inkscape:document-units="mm"
     inkscape:zoom="11.588215"
     inkscape:cx="18.769068"
     inkscape:cy="25.24116"
     inkscape:window-width="1920"
     inkscape:window-height="1009"
     inkscape:window-x="-8"
     inkscape:window-y="-8"
     inkscape:window-maximized="1"
     inkscape:current-layer="layer1" />
  <defs
     id="defs1">
    <inkscape:path-effect
       effect="fillet_chamfer"
       id="path-effect64"
       is_visible="true"
       lpeversion="1"
       nodesatellites_param="F,0,0,1,0,0.61856422,0,1 @ F,0,0,1,0,0,0,1 @ F,0,0,1,0,0,0,1 @ F,0,0,1,0,0.3607809,0,1 | F,0,0,1,0,0,0,1 @ F,0,0,1,0,0,0,1 @ F,0,0,1,0,0,0,1 @ F,0,0,1,0,0,0,1"
       radius="0"
       unit="px"
       method="auto"
       mode="F"
       chamfer_steps="1"
       flexible="false"
       use_knot_distance="true"
       apply_no_radius="true"
       apply_with_radius="true"
       only_selected="false"
       hide_knots="false" />
    <clipPath
       clipPathUnits="userSpaceOnUse"
       id="clipPath40">
      <path
         id="path41"
         style="fill:#ff0000;fill-opacity:1;fill-rule:nonzero;stroke:none;stroke-width:0.264583"
         d="M 5.0503378,3.7124349 V 5.1914145 H 6.3091756 V 4.6374431 c -0.00948,-7.938e-4 -0.018947,-0.00177 -0.028422,-0.00259 C 6.148338,4.62319 6.0144208,4.6146863 5.884912,4.5831739 5.7834742,4.5584883 5.7914119,4.4738708 5.8657905,4.4586337 c -0.024008,-0.00544 -0.041708,-0.016521 -0.051677,-0.030489 -0.02323,0.0056 -0.046531,0.01111 -0.069763,0.016536 -0.1245093,0.029071 -0.153974,-0.096554 -0.029456,-0.1255736 0.026969,-0.00629 0.054245,-0.012491 0.081132,-0.019121 0.042746,-0.011621 0.084825,-0.025614 0.1266074,-0.040308 0.087612,-0.029782 0.1750716,-0.059346 0.2614827,-0.092501 0.041603,-0.01578 0.083318,-0.031604 0.1250569,-0.047026 V 3.7124349 Z m 1.1368813,0.7777303 c -0.00393,0.00212 -0.00836,0.00394 -0.01292,0.00568 0.019479,0.0018 0.03891,0.0035 0.058395,0.00517 -0.015285,-0.00343 -0.030279,-0.00721 -0.045476,-0.010853 z m 0.1219565,0.00568 c -0.00931,0.00473 -0.020365,0.00783 -0.03359,0.00878 0.00551,4.762e-4 0.011033,0.00106 0.016536,0.00156 0.00568,5.027e-4 0.011369,0.00106 0.017052,0.00156 z" />
    </clipPath>
  </defs>
  <g
     inkscape:label="Layer 1"
     inkscape:groupmode="layer"
     id="layer1">
    <path
       id="rect1"
       style="fill:#e0e7ed;fill-opacity:1;fill-rule:evenodd;stroke:#5c7d95;stroke-width:0.42201;stroke-linecap:round;stroke-linejoin:round;stroke-opacity:1;paint-order:fill markers stroke"
       d="M 5.1913975,5.3485622 4.425594,11.287529 9.1519207,11.802751 9.8622868,5.8956675 A 0.37994773,0.37994773 53.339503 0 0 9.5498697,5.4759242 L 5.8800018,4.840594 A 0.59241292,0.59241292 143.58462 0 0 5.1913975,5.3485622 Z M 7.4264444,5.2202124 C 7.6531994,5.2447793 7.8371386,5.4485385 7.8372721,5.675308 7.8374242,5.9022814 7.6534013,6.0662439 7.4264444,6.041351 7.1996895,6.0164987 7.0159817,5.8125333 7.0161336,5.5857949 7.016267,5.3592563 7.1998913,5.195649 7.4264444,5.2202124 Z"
       inkscape:path-effect="#path-effect64"
       inkscape:original-d="M 5.2705037,4.7350772 4.425594,11.287529 9.1519207,11.802751 9.9053627,5.5374674 Z M 7.4264444,5.2202124 A 0.43353946,0.38878469 46.559924 0 1 7.8372721,5.675308 0.43353946,0.38878469 46.559924 0 1 7.4264444,6.041351 0.43353946,0.38878469 46.559924 0 1 7.0161336,5.5857949 0.43353946,0.38878469 46.559924 0 1 7.4264444,5.2202124 Z" />
    <path
       id="path60"
       style="fill:none;fill-opacity:1;fill-rule:evenodd;stroke:#5c7d95;stroke-width:0.716;stroke-linecap:round;stroke-linejoin:round;stroke-dasharray:none;stroke-opacity:1;paint-order:fill markers stroke"
       d="M 6.8838562,7.3994009 C 6.8118537,7.7234125 6.758648,7.9664184 6.7164246,8.1626619 L 5.9939881,8.061376 C 6.2958977,8.1072791 6.5236725,8.1414942 6.7148743,8.1693798 6.5691256,8.84708 6.5768982,8.8608105 6.5768982,8.8608105 L 6.722109,8.1704133 c 0.7338896,0.1069643 0.7503418,0.098185 0.7503418,0.098185 L 6.7231425,8.1636954 Z" />
    <path
       id="path60-7"
       style="fill:none;fill-opacity:1;fill-rule:evenodd;stroke:#455e70;stroke-width:0.716;stroke-linecap:round;stroke-linejoin:round;stroke-dasharray:none;stroke-opacity:1;paint-order:fill markers stroke"
       d="M 7.4709805,7.9517287 C 7.398978,8.2757403 7.3457723,8.5187462 7.3035489,8.7149897 L 6.5811124,8.6137038 C 6.883022,8.6596069 7.1107968,8.693822 7.3019986,8.7217076 7.1562499,9.3994083 7.1640225,9.4131383 7.1640225,9.4131383 L 7.3092333,8.7227411 c 0.7338896,0.1069643 0.7503418,0.098185 0.7503418,0.098185 L 7.3102668,8.7160232 Z" />
    <path
       style="fill:none;fill-opacity:1;fill-rule:evenodd;stroke:#000000;stroke-width:0.316;stroke-linecap:round;stroke-linejoin:round;stroke-dasharray:none;stroke-opacity:1;paint-order:fill markers stroke"
       d="M 7.1309345,5.0412231 C 6.7171748,5.4233849 7.3359118,5.802142 7.4645486,5.6395595"
       id="path64"
       sodipodi:nodetypes="cc" />
    <path
       style="fill:none;fill-opacity:1;fill-rule:evenodd;stroke:#000000;stroke-width:0.316;stroke-linecap:round;stroke-linejoin:round;stroke-dasharray:none;stroke-opacity:1;paint-order:fill markers stroke"
       d="M 6.3557823,1.6937858 C 12.8607,0.96305955 7.1789269,5.1334091 7.1403304,4.9977265"
       id="path64-3"
       sodipodi:nodetypes="cc" />
    <path
       style="fill:none;fill-opacity:1;fill-rule:evenodd;stroke:#000000;stroke-width:0.316;stroke-linecap:round;stroke-linejoin:round;stroke-dasharray:none;stroke-opacity:1;paint-order:fill markers stroke"
       d="M 8.3899367,1.6891514 C 1.885019,0.95842524 7.5667921,5.1287747 7.6053886,4.9930921"
       id="path64-3-0"
       sodipodi:nodetypes="cc" />
  </g>
</svg>
