<?xml version="1.0" encoding="UTF-8" standalone="no"?>
<!-- Created with Inkscape (http://www.inkscape.org/) -->

<svg
   width="54"
   height="54"
   viewBox="0 0 14.2875 14.2875"
   version="1.1"
   id="svg1"
   xml:space="preserve"
   inkscape:version="1.3.2 (091e20e, 2023-11-25, custom)"
   sodipodi:docname="ringOfFire.svg"
   inkscape:export-filename="..\ringOfFire.png"
   inkscape:export-xdpi="96"
   inkscape:export-ydpi="96"
   xmlns:inkscape="http://www.inkscape.org/namespaces/inkscape"
   xmlns:sodipodi="http://sodipodi.sourceforge.net/DTD/sodipodi-0.dtd"
   xmlns="http://www.w3.org/2000/svg"
   xmlns:svg="http://www.w3.org/2000/svg"
   xmlns:rdf="http://www.w3.org/1999/02/22-rdf-syntax-ns#"
   xmlns:cc="http://creativecommons.org/ns#"
   xmlns:dc="http://purl.org/dc/elements/1.1/"><title
     id="title14">Ring of Fire</title><sodipodi:namedview
     id="namedview1"
     pagecolor="#ffffff"
     bordercolor="#000000"
     borderopacity="0.25"
     inkscape:showpageshadow="2"
     inkscape:pageopacity="0.0"
     inkscape:pagecheckerboard="0"
     inkscape:deskcolor="#d1d1d1"
     inkscape:document-units="mm"
     inkscape:zoom="5.7941078"
     inkscape:cx="23.385827"
     inkscape:cy="-6.2995031"
     inkscape:window-width="1920"
     inkscape:window-height="1009"
     inkscape:window-x="-8"
     inkscape:window-y="-8"
     inkscape:window-maximized="1"
     inkscape:current-layer="layer1" /><defs
     id="defs1"><inkscape:perspective
       sodipodi:type="inkscape:persp3d"
       inkscape:vp_x="-0.3428277 : -7.3169546 : 0"
       inkscape:vp_y="957.82246 : -287.36051 : 0"
       inkscape:vp_z="-0.74449474 : 7.4932803 : 0"
       inkscape:persp3d-origin="5.5144693 : 9.5018174 : 1"
       id="perspective4" /></defs><g
     inkscape:label="Layer 1"
     inkscape:groupmode="layer"
     id="layer1"><path
       id="path2-4"
       style="fill:#eb6400;fill-opacity:1;fill-rule:evenodd;stroke:#000000;stroke-width:0.395478;stroke-linecap:round;stroke-linejoin:round;paint-order:fill markers stroke"
       d="M 4.466871,0.19852705 C 1.3976573,0.24965709 -0.39421686,2.7597708 0.3754953,6.0119841 l 0.003827,0.00956 C 1.6433054,9.5161068 5.3662942,12.7184 8.9209917,13.734641 12.418788,14.734616 13.611839,11.378166 13.720676,9.2232457 13.817008,7.3159609 8.7114762,0.53941884 5.0969056,0.22145474 4.8813121,0.20250188 4.6714896,0.19513492 4.4668757,0.19854499 Z M 3.0960787,2.8045593 C 4.4721073,2.7937918 7.3675748,5.1501737 9.0107229,7.3846862 10.653869,9.619197 12.010894,11.346373 10.65071,11.378692 9.5023113,11.405983 7.2577443,10.239188 5.3538555,8.0120993 3.7239759,5.7774834 1.7200508,2.815333 3.0960787,2.8045593 Z"
       sodipodi:nodetypes="sccssssssscs" /><path
       style="fill:#db0000;fill-opacity:1;fill-rule:evenodd;stroke:none;stroke-width:0.387922;stroke-linecap:round;stroke-linejoin:round;stroke-dasharray:none;stroke-opacity:1;paint-order:fill markers stroke"
       d="M 2.3699618,2.7944898 C 2.3910464,2.0353129 2.9149969,0.70262387 3.7196103,0.45369415 4.5730187,0.18966892 5.4894877,0.3839584 6.2923774,0.64348771 7.5001387,1.0338889 8.5011672,2.0397326 9.4345271,2.8999312 c 1.0252479,0.9448856 1.9469789,1.9380551 2.7625619,3.0999723 1.534006,2.1854233 1.477904,3.2493269 1.244206,3.8486072 -0.320258,0.8212493 -1.349648,1.4656343 -1.349648,1.4656343 l -0.822442,0.105441 C 11.622906,11.52063 11.360075,10.145723 9.8352025,8.3196113 9.1223283,7.4659088 8.515445,6.398903 7.6631129,5.5781389 6.810781,4.7573743 5.7276109,3.7879109 4.5631397,3.321696 3.8119041,3.0209268 2.3699618,2.7944898 2.3699618,2.7944898 Z"
       id="path3"
       sodipodi:nodetypes="csssssccszsc" /><g
       id="g1"
       transform="matrix(3.4672452,1.2757257,-1.2757257,3.4672452,1.3303955,-22.090988)"><path
         id="rect2"
         style="fill:#ff2d00;fill-rule:evenodd;stroke-width:0.264583;stroke-linecap:round;stroke-linejoin:round;paint-order:fill markers stroke"
         d="M 3.0195459,7.0265796 3.2478667,7.340521 3.4072017,6.8487668 4.0209104,7.3177125 4.1440269,7.0208716 4.5218632,7.2545935 4.5756462,7.5317555 4.39518,7.8371195 4.1440269,8.2880533 h -0.89616 L 2.8996773,7.3976015 Z"
         sodipodi:nodetypes="cccccccccccc" /><path
         id="rect2-4"
         style="fill:#ff9a00;fill-opacity:1;fill-rule:evenodd;stroke-width:0.174931;stroke-linecap:round;stroke-linejoin:round;paint-order:fill markers stroke"
         d="M 3.0508467,7.3857921 3.4126028,7.6624004 3.5005473,7.1080951 3.6712097,7.6130324 4.2661174,7.2335995 4.0643358,7.6225631 4.3281225,7.5494328 4.1406233,8.0030121 4.0035482,8.2905204 H 3.4126029 L 3.2971605,7.9913484 Z"
         sodipodi:nodetypes="cccccccccccc" /><path
         id="rect2-4-1"
         style="fill:#f7ff00;fill-opacity:1;fill-rule:evenodd;stroke-width:0.114694;stroke-linecap:round;stroke-linejoin:round;paint-order:fill markers stroke"
         d="M 3.1847364,7.5898495 3.5047832,7.8831419 3.5117932,7.2787283 3.6764518,7.8511712 3.8259076,7.5483698 4.0401535,7.4292411 3.9526868,7.8784809 4.2049519,7.7498253 3.8970564,8.2899128 H 3.5047832 L 3.393905,8.0676294 Z"
         sodipodi:nodetypes="cccccccccccc" /></g></g><metadata
     id="metadata14"><rdf:RDF><cc:Work
         rdf:about=""><dc:title>Ring of Fire</dc:title></cc:Work></rdf:RDF></metadata></svg>
